<svg width="744" height="80" viewBox="0 0 744 80" fill="none" xmlns="http://www.w3.org/2000/svg">
<path d="M5.6825 78.55C4.28917 78.55 3.11583 78.0733 2.1625 77.12C1.20917 76.1667 0.7325 74.9933 0.7325 73.6V5.73C0.7325 4.33666 1.20917 3.16333 2.1625 2.21C3.11583 1.18333 4.28917 0.669999 5.6825 0.669999C7.07583 0.669999 8.24917 1.18333 9.2025 2.21C10.2292 3.16333 10.7425 4.33666 10.7425 5.73V34.99H52.4325V5.73C52.4325 4.33666 52.9092 3.16333 53.8625 2.21C54.8158 1.18333 55.9892 0.669999 57.3825 0.669999C58.7758 0.669999 59.9492 1.18333 60.9025 2.21C61.9292 3.16333 62.4425 4.33666 62.4425 5.73V73.6C62.4425 74.9933 61.9292 76.1667 60.9025 77.12C59.9492 78.0733 58.7758 78.55 57.3825 78.55C55.9892 78.55 54.8158 78.0733 53.8625 77.12C52.9092 76.1667 52.4325 74.9933 52.4325 73.6V44.34H10.7425V73.6C10.7425 74.9933 10.2292 76.1667 9.2025 77.12C8.24917 78.0733 7.07583 78.55 5.6825 78.55ZM94.5496 78.55C93.0829 78.55 91.8729 78.0733 90.9196 77.12C90.0396 76.1667 89.5996 74.9933 89.5996 73.6C89.5996 73.0133 89.7829 72.28 90.1496 71.4L118.2 5.17999C118.786 3.86 119.593 2.79666 120.62 1.99C121.72 1.11 123.04 0.669999 124.58 0.669999H125.68C127.22 0.669999 128.503 1.11 129.53 1.99C130.63 2.79666 131.473 3.86 132.06 5.17999L160.11 71.4C160.476 72.28 160.66 73.0133 160.66 73.6C160.66 74.9933 160.183 76.1667 159.23 77.12C158.35 78.0733 157.176 78.55 155.71 78.55C154.683 78.55 153.73 78.2933 152.85 77.78C152.043 77.1933 151.42 76.4233 150.98 75.47L143.83 58.31H106.43L99.2796 75.47C98.8396 76.4233 98.1796 77.1933 97.2996 77.78C96.4929 78.2933 95.5763 78.55 94.5496 78.55ZM110.28 49.18H139.98L125.13 13.43L110.28 49.18ZM220.216 79.1C212.883 79.1 206.283 77.5233 200.416 74.37C194.623 71.1433 190.039 66.56 186.666 60.62C183.366 54.6067 181.716 47.6033 181.716 39.61C181.716 31.6167 183.366 24.65 186.666 18.71C190.039 12.6967 194.623 8.11333 200.416 4.96C206.283 1.73333 212.883 0.12 220.216 0.12C225.203 0.12 229.639 0.706665 233.526 1.88C237.486 3.05333 241.409 4.73999 245.296 6.94C246.909 7.82 247.716 9.21333 247.716 11.12C247.716 12.22 247.313 13.21 246.506 14.09C245.699 14.8967 244.636 15.3 243.316 15.3C242.583 15.3 241.923 15.1533 241.336 14.86C238.109 13.1733 234.956 11.89 231.876 11.01C228.796 10.13 225.239 9.68999 221.206 9.68999C214.899 9.68999 209.509 11.01 205.036 13.65C200.636 16.2167 197.299 19.7733 195.026 24.32C192.826 28.7933 191.726 33.89 191.726 39.61C191.726 45.33 192.826 50.4633 195.026 55.01C197.299 59.4833 200.636 63.04 205.036 65.68C209.509 68.2467 214.899 69.53 221.206 69.53C225.239 69.53 228.796 69.09 231.876 68.21C234.956 67.33 238.109 66.0467 241.336 64.36C241.923 64.0667 242.583 63.92 243.316 63.92C244.636 63.92 245.699 64.3233 246.506 65.13C247.313 65.9367 247.716 66.9267 247.716 68.1C247.716 70.0067 246.909 71.4 245.296 72.28C241.409 74.48 237.486 76.1667 233.526 77.34C229.639 78.5133 225.203 79.1 220.216 79.1ZM278.77 78.55C277.377 78.55 276.204 78.0733 275.25 77.12C274.297 76.1667 273.82 74.9933 273.82 73.6V5.73C273.82 4.33666 274.297 3.16333 275.25 2.21C276.204 1.18333 277.377 0.669999 278.77 0.669999C280.164 0.669999 281.337 1.18333 282.29 2.21C283.317 3.16333 283.83 4.33666 283.83 5.73V40.71L321.45 2.43C322.477 1.25666 323.724 0.669999 325.19 0.669999C326.437 0.669999 327.5 1.11 328.38 1.99C329.334 2.79666 329.81 3.82333 329.81 5.06999C329.81 6.53666 329.407 7.67333 328.6 8.48L303.19 33.78L332.34 70.52C333.147 71.5467 333.55 72.61 333.55 73.71C333.624 75.03 333.184 76.1667 332.23 77.12C331.277 78.0733 330.104 78.55 328.71 78.55C327.024 78.55 325.704 77.89 324.75 76.57L296.37 40.38L283.83 53.03V73.6C283.83 74.9933 283.317 76.1667 282.29 77.12C281.337 78.0733 280.164 78.55 278.77 78.55ZM363.462 78C362.068 78 360.895 77.5233 359.942 76.57C358.988 75.6167 358.512 74.4433 358.512 73.05V6.28C358.512 4.88667 358.988 3.71333 359.942 2.76C360.895 1.73333 362.068 1.22 363.462 1.22H407.572C408.892 1.22 409.992 1.69666 410.872 2.64999C411.825 3.52999 412.302 4.63 412.302 5.95C412.302 7.27 411.825 8.37 410.872 9.25C409.992 10.13 408.892 10.57 407.572 10.57H368.522V34.88H403.612C404.932 34.88 406.032 35.3567 406.912 36.31C407.865 37.19 408.342 38.29 408.342 39.61C408.342 40.93 407.865 42.03 406.912 42.91C406.032 43.79 404.932 44.23 403.612 44.23H368.522V68.65H407.572C408.892 68.65 409.992 69.1267 410.872 70.08C411.825 70.96 412.302 72.06 412.302 73.38C412.302 74.7 411.825 75.8 410.872 76.68C409.992 77.56 408.892 78 407.572 78H363.462ZM444.608 78.55C443.215 78.55 442.042 78.0733 441.088 77.12C440.135 76.1667 439.658 74.9933 439.658 73.6V6.28C439.658 4.88667 440.135 3.71333 441.088 2.76C442.042 1.73333 443.215 1.22 444.608 1.22H470.238C480.212 1.22 487.692 3.27333 492.678 7.38C497.665 11.4867 500.158 16.8767 500.158 23.55C500.158 27.95 498.912 31.9833 496.418 35.65C493.998 39.2433 490.442 41.8467 485.748 43.46C491.028 44.8533 494.622 48.1533 496.528 53.36C498.508 58.4933 499.498 63.5533 499.498 68.54V73.6C499.498 74.9933 499.022 76.1667 498.068 77.12C497.115 78.0733 495.942 78.55 494.548 78.55C493.008 78.55 491.762 78.11 490.808 77.23C489.928 76.2767 489.488 75.0667 489.488 73.6V70.3C489.488 66.6333 489.158 63.26 488.498 60.18C487.838 57.0267 486.262 54.24 483.768 51.82C481.275 49.3267 477.498 48.08 472.438 48.08H449.668V73.6C449.668 74.9933 449.155 76.1667 448.128 77.12C447.175 78.0733 446.002 78.55 444.608 78.55ZM469.578 38.62C475.885 38.62 480.872 37.3733 484.538 34.88C488.278 32.3867 490.148 28.8667 490.148 24.32C490.148 19.92 488.535 16.5467 485.308 14.2C482.155 11.8533 476.728 10.68 469.028 10.68H449.668V38.62H469.578ZM533.919 78.55C532.525 78.55 531.352 78.0733 530.399 77.12C529.445 76.1667 528.969 74.9933 528.969 73.6V7.93C528.969 5.95 529.665 4.26333 531.059 2.87C532.452 1.40333 534.139 0.669999 536.119 0.669999H539.749C541.215 0.669999 542.535 1.11 543.709 1.99C544.955 2.87 545.872 3.97 546.459 5.29L571.429 67.55L596.399 5.29C596.986 3.97 597.865 2.87 599.039 1.99C600.285 1.11 601.642 0.669999 603.109 0.669999H606.739C608.719 0.669999 610.405 1.40333 611.799 2.87C613.192 4.26333 613.889 5.95 613.889 7.93V73.6C613.889 74.9933 613.412 76.1667 612.459 77.12C611.506 78.0733 610.332 78.55 608.939 78.55C607.546 78.55 606.336 78.0733 605.309 77.12C604.355 76.1667 603.879 74.9933 603.879 73.6V11.12L578.469 73.93C577.882 75.3233 576.929 76.46 575.609 77.34C574.362 78.1467 572.969 78.55 571.429 78.55C569.889 78.55 568.459 78.1467 567.139 77.34C565.892 76.46 564.975 75.3233 564.389 73.93L538.979 11.12V73.6C538.979 74.9933 538.465 76.1667 537.439 77.12C536.485 78.0733 535.312 78.55 533.919 78.55ZM651.159 78.55C649.766 78.55 648.592 78.0733 647.639 77.12C646.686 76.1667 646.209 74.9933 646.209 73.6V5.73C646.209 4.33666 646.686 3.16333 647.639 2.21C648.592 1.18333 649.766 0.669999 651.159 0.669999C652.552 0.669999 653.726 1.18333 654.679 2.21C655.706 3.16333 656.219 4.33666 656.219 5.73V73.6C656.219 74.9933 655.706 76.1667 654.679 77.12C653.726 78.0733 652.552 78.55 651.159 78.55ZM711.346 78.55C709.953 78.55 708.78 78.0733 707.826 77.12C706.873 76.1667 706.396 74.9933 706.396 73.6V10.57H683.956C682.636 10.57 681.536 10.13 680.656 9.25C679.776 8.37 679.336 7.27 679.336 5.95C679.336 4.63 679.776 3.52999 680.656 2.64999C681.536 1.69666 682.636 1.22 683.956 1.22H738.736C740.056 1.22 741.156 1.69666 742.036 2.64999C742.99 3.52999 743.466 4.63 743.466 5.95C743.466 7.27 742.99 8.37 742.036 9.25C741.156 10.13 740.056 10.57 738.736 10.57H716.406V73.6C716.406 74.9933 715.893 76.1667 714.866 77.12C713.913 78.0733 712.74 78.55 711.346 78.55Z" fill="url(#paint0_linear_4_15)"/>
<defs>
<linearGradient id="paint0_linear_4_15" x1="367.5" y1="-23" x2="367.5" y2="109" gradientUnits="userSpaceOnUse">
<stop stop-color="#E60028" stop-opacity="0.723958"/>
<stop offset="1" stop-color="#F4B30B"/>
</linearGradient>
</defs>
</svg>
